<?xml version="1.0" encoding="UTF-8" standalone="no"?>
<!-- Created with DrawBerry (http://raphaelbost.free.fr/) -->
	<!--viewBox = "0 0 15000 15000"-->
<svg 
	width = "100%" 
	height = "100%"
viewBox="-270 0 1000 1000"
	xmlns:dc="http://purl.org/dc/elements/1.1/"
	xmlns:cc="http://web.resource.org/cc/"
	xmlns:rdf="http://www.w3.org/1999/02/22-rdf-syntax-ns#"
	xmlns:svg="http://www.w3.org/2000/svg"
	xmlns="http://www.w3.org/2000/svg" 
	xmlns:sodipodi="http://inkscape.sourceforge.net/DTD/sodipodi-0.dtd"
	xmlns:inkscape="http://www.inkscape.org/namespaces/inkscape"
 >
<g inkscape:label="Background" inkscape:groupmode="layer" id="Background">
<path  style="fill:#ffffff;fill-opacity:1.000000;stroke:#000000;stroke-width:1.000000px;stroke-opacity:1.000000;stroke-linecap:butt;stroke-linejoin:miter;" 
 d="M 2.265213,178.654785 C 2.265213,178.654785 2.046463,392.947754 2.046463,392.947754 C 2.046463,392.947754 2.155838,465.107910 73.648026,466.365723 C 145.140198,467.623535 361.581604,465.400879 361.581604,465.400879 C 361.581604,465.400879 433.515198,465.623535 433.257385,392.982910 C 432.999573,320.342285 434.741760,105.643066 434.741760,105.643066 C 434.741760,105.643066 433.964417,34.482910 361.804260,34.447754 C 289.644104,34.412598 74.499588,33.447754 74.499588,33.447754 C 74.499588,33.447754 1.597244,32.967285 1.116776,104.346191 C 0.636307,175.725098 2.265213,178.654785 2.265213,178.654785  z"  />
<path  style="fill:#ffffff;fill-opacity:1.000000;stroke:#000000;stroke-width:1.000000px;stroke-opacity:1.000000;stroke-linecap:butt;stroke-linejoin:miter;" 
 d="M 34.320694,146.185242 C 34.320694,146.185242 34.101944,360.478210 34.101944,360.478210 C 34.101944,360.478210 34.211319,432.638367 105.703506,433.896179 C 177.195679,435.153992 393.637085,432.931335 393.637085,432.931335 C 393.637085,432.931335 465.570679,433.153992 465.312866,360.513367 C 465.055054,287.872742 466.797241,73.173523 466.797241,73.173523 C 466.797241,73.173523 466.019897,2.013367 393.859741,1.978210 C 321.699585,1.943054 106.555069,0.978210 106.555069,0.978210 C 106.555069,0.978210 33.652725,0.497742 33.172256,71.876648 C 32.691788,143.255554 34.320694,146.185242 34.320694,146.185242  z"  />
<path  style="fill:#525252;fill-opacity:1.000000;stroke:#000000;stroke-width:1.000000px;stroke-opacity:1.000000;stroke-linecap:butt;stroke-linejoin:miter;" 
 d="M 116.710175,297.751495 L 217.818115,195.229309 L 167.475464,144.207153 L 348.679871,116.914459 L 320.417725,298.248688 L 268.870728,246.651978 L 167.895294,347.992004 L 116.710175,297.751495  z"  />
</g>
</svg>
